<svg width="164" height="37" viewBox="0 0 164 37" fill="none" xmlns="http://www.w3.org/2000/svg">
<path d="M31.9236 32.2665H41.8637V36.1047H27.9131V11.6892H31.9236V32.2665Z" fill="black"/>
<path d="M51.4277 32.2665H62.2373V36.1047H47.4172V11.6892H62.065V15.5274H51.4277V21.876H61.1916V25.679H51.4277V32.2704V32.2665Z" fill="black"/>
<path d="M68.6799 11.6892H72.6904V27.7665C72.6904 30.7313 74.4333 32.6504 77.9229 32.6504C81.4125 32.6504 83.1554 30.7313 83.1554 27.7665V11.6892H87.1659V28.0093C87.1659 30.6255 86.2925 32.6817 84.5849 34.2522C82.8773 35.7875 80.6449 36.5551 77.9229 36.5551C75.2009 36.5551 72.9724 35.7875 71.2609 34.2522C69.5533 32.6817 68.6799 30.6255 68.6799 28.0093V11.6892Z" fill="black"/>
<path d="M118.408 11.6892V36.1008H114.397V18.6997L106.968 30.9741H106.478L99.0486 18.6645V36.1008H95.0381V11.6892H99.3619L106.721 23.8969L114.115 11.6892H118.404H118.408Z" fill="black"/>
<path d="M130.49 32.2665H141.3V36.1047H126.48V11.6892H141.127V15.5274H130.49V21.876H140.254V25.679H130.49V32.2704V32.2665Z" fill="black"/>
<path d="M164 11.6892V15.5274H157.13V36.1047H153.12V15.5235H146.215V11.6853H164V11.6892Z" fill="black"/>
<path d="M18.1726 36.1008L16.465 31.1817H6.07059L4.36299 36.1008H0L8.85915 11.6853H13.6725L22.4964 36.1008H18.1726ZM7.39437 27.414H15.1373L11.2678 16.3929L7.39437 27.414Z" fill="black"/>
<path d="M3.7481 7.94109C5.81812 7.94109 7.4962 6.26301 7.4962 4.19299C7.4962 2.12297 5.81812 0.444885 3.7481 0.444885C1.67808 0.444885 0 2.12297 0 4.19299C0 6.26301 1.67808 7.94109 3.7481 7.94109Z" fill="#0067EF"/>
<path d="M14.9885 7.93717L18.7366 0.444885L22.4808 7.93717H14.9885Z" fill="#0067EF"/>
</svg>
