<svg id="Logo" xmlns="http://www.w3.org/2000/svg" width="356.966" height="67.824" viewBox="0 0 356.966 67.824">
  <path id="word_T" d="M1273.639,57.684h-4.053a1.135,1.135,0,0,1-1.216-1.013V6.614c0-.608-.2-.811-.811-.811H1255.4c-.811,0-1.419-.405-1.419-1.216V1.345c0-.811.405-1.216,1.419-1.216h32.628c.811,0,1.419.405,1.419,1.216V4.588c0,.811-.405,1.216-1.419,1.216h-12.159c-.608,0-.811.2-.811.811V56.468a1.135,1.135,0,0,1-1.013,1.216Z" transform="translate(-996.145 0.122)" fill="#b54201"/>
  <path id="word_R" d="M985.683,57.566h-4.053a1.135,1.135,0,0,1-1.216-1.013V1.227A1.135,1.135,0,0,1,981.427.011H1002.5a13.11,13.11,0,0,1,9.728,3.445,13.276,13.276,0,0,1,3.648,9.728V21.29a13.364,13.364,0,0,1-2.432,8.309,10.446,10.446,0,0,1-6.688,4.256v.608l10.335,21.684c.608,1.013.2,1.419-.811,1.419h-4.053A2.328,2.328,0,0,1,1010,56.35l-9.93-21.684H988.317c-.608,0-.811.2-.811.811V56.35a1.135,1.135,0,0,1-1.013,1.216Zm2.229-28.372h13.578c5.067,0,7.7-2.635,7.7-7.7v-7.9c0-5.269-2.634-7.7-7.7-7.7H987.912c-.608,0-.811.2-.811.811V28.383c-.2.608.2.811.811.811Z" transform="translate(-765.135 0.24)" fill="#db8200"/>
  <path id="word_O" d="M669.65,51.891h9.12c5.066,0,7.5-2.635,7.5-7.7v-30.6c0-5.269-2.432-7.7-7.5-7.7h-9.12c-4.864,0-7.5,2.635-7.5,7.7v30.6C662.152,49.257,664.786,51.891,669.65,51.891Zm9.93,5.674H668.84a13.109,13.109,0,0,1-9.728-3.445,12.347,12.347,0,0,1-3.445-9.728V13.184a13.109,13.109,0,0,1,3.445-9.728A13.109,13.109,0,0,1,668.84.011h10.741a13.109,13.109,0,0,1,9.727,3.445,13.109,13.109,0,0,1,3.445,9.728V44.19a13.109,13.109,0,0,1-3.445,9.728A12.508,12.508,0,0,1,679.581,57.566Z" transform="translate(-490.85 0.24)" fill="#f4b800"/>
  <path id="word_P" d="M364.292,57.566h-4.053a1.135,1.135,0,0,1-1.216-1.013V1.227A1.135,1.135,0,0,1,360.037.011h21.076a13.109,13.109,0,0,1,9.728,3.445,13.109,13.109,0,0,1,3.445,9.728v9.93a13.109,13.109,0,0,1-3.445,9.728,13.109,13.109,0,0,1-9.728,3.445H366.319c-.608,0-.811.2-.811.811v19.05a1.135,1.135,0,0,1-1.013,1.216C364.5,57.566,364.5,57.566,364.292,57.566Zm2.229-26.953H380.3c5.067,0,7.5-2.635,7.5-7.7V13.589c0-5.269-2.432-7.7-7.5-7.7H366.522c-.608,0-.811.2-.811.811V30c-.2.405.2.608.811.608Z" transform="translate(-240.413 0.24)" fill="#9f8e02"/>
  <path id="word_S" d="M34.715,44.393V41.556a1.135,1.135,0,0,1,1.013-1.216h4.256A1.135,1.135,0,0,1,41.2,41.353v2.635c0,5.472,2.635,8.106,7.9,8.106h7.9c5.269,0,7.9-2.837,7.9-8.309V40.542c0-4.256-3.648-7.093-10.741-8.512-3.04-.608-5.877-1.216-8.917-1.824a15.378,15.378,0,0,1-7.7-4.256,10.841,10.841,0,0,1-3.04-8.512V13.184a13.109,13.109,0,0,1,3.445-9.728A13.109,13.109,0,0,1,47.686.011H57.818a13.109,13.109,0,0,1,9.728,3.445,13.275,13.275,0,0,1,3.648,9.728v2.229c0,.811-.405,1.419-1.216,1.419H65.925c-.811,0-1.216-.405-1.216-1.419V13.792c0-5.472-2.635-8.106-7.9-8.106H49.1q-7.9,0-7.9,8.512v3.648c0,3.04,2.027,5.066,6.08,6.282,1.824.405,3.85.811,5.877,1.216a37.949,37.949,0,0,1,6.485,1.621,50.429,50.429,0,0,1,5.877,2.229,10.747,10.747,0,0,1,4.256,4.256A11.609,11.609,0,0,1,71.4,40.34v4.053a12.508,12.508,0,0,1-3.648,9.728,13.109,13.109,0,0,1-9.728,3.445H47.686a13.109,13.109,0,0,1-9.728-3.445A14.152,14.152,0,0,1,34.715,44.393Z" transform="translate(33.636 0.24)" fill="#508104"/>
  <path id="krg_G" d="M434.072,90.186h-4.458a7.931,7.931,0,0,1-5.877-2.229,8.829,8.829,0,0,1-2.229-5.877V69.514a7.215,7.215,0,0,1,2.229-5.877,7.931,7.931,0,0,1,5.877-2.229h12.362c.405,0,.405.2.405.608V91.807a7.216,7.216,0,0,1-2.229,5.877,7.931,7.931,0,0,1-5.877,2.229H423.534c-.405,0-.608-.2-.608-.405V98.7c0-.405.2-.405.608-.405h10.741a5.959,5.959,0,0,0,4.661-1.824,7.076,7.076,0,0,0,1.621-4.864V87.146h-.2a5.991,5.991,0,0,1-6.282,3.04Zm6.688-7.9V63.637c0-.405-.2-.405-.608-.405H429.613a5.959,5.959,0,0,0-4.661,1.824,7.076,7.076,0,0,0-1.621,4.864V82.282a7.076,7.076,0,0,0,1.621,4.864,6.42,6.42,0,0,0,4.661,1.824h4.256a7.076,7.076,0,0,0,4.864-1.621A7.375,7.375,0,0,0,440.759,82.282Z" transform="translate(-85.445 -34.204)" fill="#f4b800"/>
  <path id="krg_R" d="M309.554,92.009h-.811c-.405,0-.405-.2-.405-.608V62.016c0-.405.2-.608.405-.608h.811c.405,0,.405.2.405.608v2.635h.2a6.917,6.917,0,0,1,6.485-3.243h2.432c.405,0,.608.2.608.405v.811c0,.405-.2.405-.608.405h-2.432a6.9,6.9,0,0,0-4.864,1.824,7.019,7.019,0,0,0-1.824,5.269V91.4c0,.405-.2.608-.405.608Z" transform="translate(10.093 -34.204)" fill="#f4b800"/>
  <path id="krg_K" d="M162.726,17.406h.811c.405,0,.608.2.2.608L154.214,32.2v.2l10.741,15.2c.2.405.2.608-.2.608h-1.013a1.115,1.115,0,0,1-1.013-.608l-10.538-15c-.2-.2-.2-.405,0-.811l9.525-13.983A1.548,1.548,0,0,1,162.726,17.406Zm-16.01,30.6h-.811c-.405,0-.405-.2-.405-.608V9.908c0-.405.2-.608.405-.608h.811c.405,0,.405.2.405.608V47.4c.2.405,0,.608-.405.608Z" transform="translate(147.599 9.798)" fill="#f4b800"/>
  <path id="eword" d="M16.593,33.332a8,8,0,0,1-5.066-2.027A7.989,7.989,0,0,1,9.5,25.834V15.5a7.651,7.651,0,0,1,2.027-5.472A7.651,7.651,0,0,1,17,8h3.85a8.354,8.354,0,0,1,5.472,2.027A7.651,7.651,0,0,1,28.347,15.5v5.674a1.7,1.7,0,0,1-1.216,1.621H14.364a.436.436,0,0,0-.405.405v2.432a3.737,3.737,0,0,0,.811,2.635,3.23,3.23,0,0,0,2.432.811h9.525a2.2,2.2,0,0,1,1.013.2,1.114,1.114,0,0,1,.608,1.013v1.419a1.827,1.827,0,0,1-.2,1.013,1.114,1.114,0,0,1-1.013.608ZM14.364,18.943h9.322a.436.436,0,0,0,.405-.405V15.5a3.737,3.737,0,0,0-.811-2.635,3.538,3.538,0,0,0-2.432-.811H17.2a3.23,3.23,0,0,0-2.432.811,3.538,3.538,0,0,0-.811,2.432v3.04C13.958,18.741,14.161,18.943,14.364,18.943Z" transform="translate(9.696 8.308)" fill="#f4b800"/>
  <path id="location" d="M29.875,68.024l-1.817-1.413C26.847,65.8,0,46.426,0,28.662S14.736.2,28.866.2h.4A28.52,28.52,0,0,1,57.328,28.864C57.126,45.618,32.7,65.8,31.692,66.611ZM28.866,6.256c-11.1,0-22.81,8.478-22.81,22.406,0,11.1,15.543,25.434,23.617,31.49,7.267-6.459,21.4-20.993,21.6-31.692a22.015,22.015,0,0,0-22-22.406Z" transform="translate(0 -0.2)" fill="#f4b800"/>
</svg>
